<mxfile host="app.diagrams.net" modified="2024-01-20T03:35:29.759Z" agent="Mozilla/5.0 (Windows NT 10.0; Win64; x64) AppleWebKit/537.36 (KHTML, like Gecko) Chrome/120.0.0.0 Safari/537.36 Edg/120.0.0.0" etag="1uXHg5HHpBeVUTXfDqsc" version="22.1.21" type="device">
  <diagram name="第 1 页" id="pg2Clv0_3JegJEK8o3S1">
    <mxGraphModel dx="1167" dy="614" grid="1" gridSize="10" guides="1" tooltips="1" connect="1" arrows="1" fold="1" page="1" pageScale="1" pageWidth="827" pageHeight="1169" math="0" shadow="0">
      <root>
        <mxCell id="0" />
        <mxCell id="1" parent="0" />
        <mxCell id="SDVveVz1zsXpYRoqyrrZ-1" value="" style="rounded=0;whiteSpace=wrap;html=1;fillColor=#dae8fc;strokeColor=#6c8ebf;" parent="1" vertex="1">
          <mxGeometry x="200" y="80" width="120" height="40" as="geometry" />
        </mxCell>
        <mxCell id="SDVveVz1zsXpYRoqyrrZ-2" value="bk/fake size" style="rounded=0;whiteSpace=wrap;html=1;fillColor=#dae8fc;strokeColor=#6c8ebf;" parent="1" vertex="1">
          <mxGeometry x="320" y="80" width="120" height="40" as="geometry" />
        </mxCell>
        <mxCell id="SDVveVz1zsXpYRoqyrrZ-3" value="fd_nextsize/p-&amp;gt;fd" style="rounded=0;whiteSpace=wrap;html=1;fillColor=#dae8fc;strokeColor=#6c8ebf;" parent="1" vertex="1">
          <mxGeometry x="200" y="120" width="120" height="40" as="geometry" />
        </mxCell>
        <mxCell id="SDVveVz1zsXpYRoqyrrZ-4" value="bk_nextsize/p-&amp;gt;bk" style="rounded=0;whiteSpace=wrap;html=1;fillColor=#dae8fc;strokeColor=#6c8ebf;" parent="1" vertex="1">
          <mxGeometry x="320" y="120" width="120" height="40" as="geometry" />
        </mxCell>
        <mxCell id="SDVveVz1zsXpYRoqyrrZ-5" value="fake prev_size" style="rounded=0;whiteSpace=wrap;html=1;" parent="1" vertex="1">
          <mxGeometry x="200" y="240" width="120" height="40" as="geometry" />
        </mxCell>
        <mxCell id="SDVveVz1zsXpYRoqyrrZ-6" value="0x500(inuse位&lt;br&gt;被0字节覆盖)" style="rounded=0;whiteSpace=wrap;html=1;" parent="1" vertex="1">
          <mxGeometry x="320" y="240" width="120" height="40" as="geometry" />
        </mxCell>
        <mxCell id="SDVveVz1zsXpYRoqyrrZ-7" value="barrier" style="rounded=0;whiteSpace=wrap;html=1;fillColor=#f8cecc;strokeColor=#b85450;" parent="1" vertex="1">
          <mxGeometry x="200" y="320" width="240" height="40" as="geometry" />
        </mxCell>
        <mxCell id="SDVveVz1zsXpYRoqyrrZ-9" value="" style="rounded=0;whiteSpace=wrap;html=1;" parent="1" vertex="1">
          <mxGeometry x="200" y="360" width="120" height="40" as="geometry" />
        </mxCell>
        <mxCell id="SDVveVz1zsXpYRoqyrrZ-10" value="0x501" style="rounded=0;whiteSpace=wrap;html=1;" parent="1" vertex="1">
          <mxGeometry x="320" y="360" width="120" height="40" as="geometry" />
        </mxCell>
        <mxCell id="SDVveVz1zsXpYRoqyrrZ-11" value="" style="rounded=0;whiteSpace=wrap;html=1;" parent="1" vertex="1">
          <mxGeometry x="200" y="400" width="120" height="40" as="geometry" />
        </mxCell>
        <mxCell id="SDVveVz1zsXpYRoqyrrZ-12" value="bk=p(利用victim&lt;br&gt;地址部分写)" style="rounded=0;whiteSpace=wrap;html=1;" parent="1" vertex="1">
          <mxGeometry x="320" y="400" width="120" height="40" as="geometry" />
        </mxCell>
        <mxCell id="SDVveVz1zsXpYRoqyrrZ-13" value="barrier" style="rounded=0;whiteSpace=wrap;html=1;fillColor=#f8cecc;strokeColor=#b85450;" parent="1" vertex="1">
          <mxGeometry x="200" y="440" width="240" height="40" as="geometry" />
        </mxCell>
        <mxCell id="SDVveVz1zsXpYRoqyrrZ-15" value="" style="rounded=0;whiteSpace=wrap;html=1;" parent="1" vertex="1">
          <mxGeometry x="200" y="480" width="120" height="40" as="geometry" />
        </mxCell>
        <mxCell id="SDVveVz1zsXpYRoqyrrZ-16" value="0x521" style="rounded=0;whiteSpace=wrap;html=1;" parent="1" vertex="1">
          <mxGeometry x="320" y="480" width="120" height="40" as="geometry" />
        </mxCell>
        <mxCell id="tOt1ebKtWuAOFTBFtYom-1" value="fd=p(利用victim&lt;br style=&quot;border-color: var(--border-color);&quot;&gt;地址部分写)" style="rounded=0;whiteSpace=wrap;html=1;" parent="1" vertex="1">
          <mxGeometry x="200" y="520" width="120" height="40" as="geometry" />
        </mxCell>
        <mxCell id="tOt1ebKtWuAOFTBFtYom-2" value="" style="rounded=0;whiteSpace=wrap;html=1;" parent="1" vertex="1">
          <mxGeometry x="320" y="520" width="120" height="40" as="geometry" />
        </mxCell>
        <mxCell id="tOt1ebKtWuAOFTBFtYom-3" value="barrier" style="rounded=0;whiteSpace=wrap;html=1;fillColor=#f8cecc;strokeColor=#b85450;" parent="1" vertex="1">
          <mxGeometry x="200" y="560" width="240" height="40" as="geometry" />
        </mxCell>
        <mxCell id="tOt1ebKtWuAOFTBFtYom-4" value="" style="rounded=0;whiteSpace=wrap;html=1;" parent="1" vertex="1">
          <mxGeometry x="200" y="280" width="120" height="40" as="geometry" />
        </mxCell>
        <mxCell id="tOt1ebKtWuAOFTBFtYom-5" value="" style="rounded=0;whiteSpace=wrap;html=1;" parent="1" vertex="1">
          <mxGeometry x="320" y="280" width="120" height="40" as="geometry" />
        </mxCell>
        <mxCell id="tOt1ebKtWuAOFTBFtYom-6" value="" style="rounded=0;whiteSpace=wrap;html=1;" parent="1" vertex="1">
          <mxGeometry x="200" y="160" width="120" height="40" as="geometry" />
        </mxCell>
        <mxCell id="tOt1ebKtWuAOFTBFtYom-7" value="" style="rounded=0;whiteSpace=wrap;html=1;" parent="1" vertex="1">
          <mxGeometry x="320" y="160" width="120" height="40" as="geometry" />
        </mxCell>
        <mxCell id="tOt1ebKtWuAOFTBFtYom-8" value="" style="rounded=0;whiteSpace=wrap;html=1;" parent="1" vertex="1">
          <mxGeometry x="200" y="40" width="120" height="40" as="geometry" />
        </mxCell>
        <mxCell id="tOt1ebKtWuAOFTBFtYom-9" value="0x511" style="rounded=0;whiteSpace=wrap;html=1;" parent="1" vertex="1">
          <mxGeometry x="320" y="40" width="120" height="40" as="geometry" />
        </mxCell>
        <mxCell id="tOt1ebKtWuAOFTBFtYom-10" value="...(其它chunk)" style="text;html=1;align=center;verticalAlign=middle;resizable=0;points=[];autosize=1;strokeColor=none;fillColor=none;" parent="1" vertex="1">
          <mxGeometry x="270" y="200" width="100" height="30" as="geometry" />
        </mxCell>
        <mxCell id="tOt1ebKtWuAOFTBFtYom-11" value="" style="shape=curlyBracket;whiteSpace=wrap;html=1;rounded=1;flipH=1;labelPosition=right;verticalLabelPosition=middle;align=left;verticalAlign=middle;" parent="1" vertex="1">
          <mxGeometry x="460" y="80" width="20" height="80" as="geometry" />
        </mxCell>
        <mxCell id="tOt1ebKtWuAOFTBFtYom-12" value="fake p" style="text;html=1;align=center;verticalAlign=middle;resizable=0;points=[];autosize=1;strokeColor=none;fillColor=none;" parent="1" vertex="1">
          <mxGeometry x="480" y="108" width="60" height="30" as="geometry" />
        </mxCell>
        <mxCell id="tOt1ebKtWuAOFTBFtYom-13" value="" style="shape=curlyBracket;whiteSpace=wrap;html=1;rounded=1;labelPosition=left;verticalLabelPosition=middle;align=right;verticalAlign=middle;" parent="1" vertex="1">
          <mxGeometry x="160" y="40" width="20" height="120" as="geometry" />
        </mxCell>
        <mxCell id="tOt1ebKtWuAOFTBFtYom-14" value="prev" style="text;html=1;align=center;verticalAlign=middle;resizable=0;points=[];autosize=1;strokeColor=none;fillColor=none;" parent="1" vertex="1">
          <mxGeometry x="120" y="85" width="50" height="30" as="geometry" />
        </mxCell>
        <mxCell id="tOt1ebKtWuAOFTBFtYom-15" value="" style="shape=curlyBracket;whiteSpace=wrap;html=1;rounded=1;labelPosition=left;verticalLabelPosition=middle;align=right;verticalAlign=middle;" parent="1" vertex="1">
          <mxGeometry x="160" y="360" width="20" height="80" as="geometry" />
        </mxCell>
        <mxCell id="tOt1ebKtWuAOFTBFtYom-16" value="a" style="text;html=1;align=center;verticalAlign=middle;resizable=0;points=[];autosize=1;strokeColor=none;fillColor=none;" parent="1" vertex="1">
          <mxGeometry x="130" y="385" width="30" height="30" as="geometry" />
        </mxCell>
        <mxCell id="tOt1ebKtWuAOFTBFtYom-17" value="" style="shape=curlyBracket;whiteSpace=wrap;html=1;rounded=1;labelPosition=left;verticalLabelPosition=middle;align=right;verticalAlign=middle;" parent="1" vertex="1">
          <mxGeometry x="160" y="480" width="20" height="60" as="geometry" />
        </mxCell>
        <mxCell id="tOt1ebKtWuAOFTBFtYom-19" value="b" style="text;html=1;align=center;verticalAlign=middle;resizable=0;points=[];autosize=1;strokeColor=none;fillColor=none;" parent="1" vertex="1">
          <mxGeometry x="130" y="495" width="30" height="30" as="geometry" />
        </mxCell>
        <mxCell id="tOt1ebKtWuAOFTBFtYom-21" value="" style="endArrow=classic;html=1;rounded=0;" parent="1" edge="1">
          <mxGeometry width="50" height="50" relative="1" as="geometry">
            <mxPoint x="200" y="539.5" as="sourcePoint" />
            <mxPoint x="190" y="80" as="targetPoint" />
            <Array as="points">
              <mxPoint x="20" y="540" />
              <mxPoint x="20" y="80" />
            </Array>
          </mxGeometry>
        </mxCell>
        <mxCell id="tOt1ebKtWuAOFTBFtYom-22" value="" style="endArrow=classic;html=1;rounded=0;exitX=1;exitY=0.75;exitDx=0;exitDy=0;" parent="1" edge="1">
          <mxGeometry width="50" height="50" relative="1" as="geometry">
            <mxPoint x="200" y="138" as="sourcePoint" />
            <mxPoint x="160" y="360" as="targetPoint" />
            <Array as="points">
              <mxPoint x="120" y="138" />
              <mxPoint x="120" y="360" />
            </Array>
          </mxGeometry>
        </mxCell>
        <mxCell id="tOt1ebKtWuAOFTBFtYom-25" value="" style="endArrow=classic;html=1;rounded=0;exitX=1;exitY=0.5;exitDx=0;exitDy=0;" parent="1" source="SDVveVz1zsXpYRoqyrrZ-4" edge="1">
          <mxGeometry width="50" height="50" relative="1" as="geometry">
            <mxPoint x="570" y="180" as="sourcePoint" />
            <mxPoint x="480" y="480" as="targetPoint" />
            <Array as="points">
              <mxPoint x="520" y="140" />
              <mxPoint x="520" y="480" />
            </Array>
          </mxGeometry>
        </mxCell>
        <mxCell id="tOt1ebKtWuAOFTBFtYom-26" value="" style="endArrow=classic;html=1;rounded=0;" parent="1" edge="1">
          <mxGeometry width="50" height="50" relative="1" as="geometry">
            <mxPoint x="440" y="420" as="sourcePoint" />
            <mxPoint x="450" y="80" as="targetPoint" />
            <Array as="points">
              <mxPoint x="620" y="420" />
              <mxPoint x="620" y="80" />
            </Array>
          </mxGeometry>
        </mxCell>
        <mxCell id="tOt1ebKtWuAOFTBFtYom-27" value="" style="shape=curlyBracket;whiteSpace=wrap;html=1;rounded=1;labelPosition=left;verticalLabelPosition=middle;align=right;verticalAlign=middle;" parent="1" vertex="1">
          <mxGeometry x="160" y="240" width="20" height="80" as="geometry" />
        </mxCell>
        <mxCell id="tOt1ebKtWuAOFTBFtYom-28" value="victim" style="text;html=1;align=center;verticalAlign=middle;resizable=0;points=[];autosize=1;strokeColor=none;fillColor=none;" parent="1" vertex="1">
          <mxGeometry x="120" y="265" width="50" height="30" as="geometry" />
        </mxCell>
        <mxCell id="5B8qh70_miLeS8DP_mCh-1" value="" style="rounded=0;whiteSpace=wrap;html=1;" parent="1" vertex="1">
          <mxGeometry x="200" y="880" width="120" height="40" as="geometry" />
        </mxCell>
        <mxCell id="5B8qh70_miLeS8DP_mCh-2" value="" style="rounded=0;whiteSpace=wrap;html=1;" parent="1" vertex="1">
          <mxGeometry x="320" y="880" width="120" height="40" as="geometry" />
        </mxCell>
        <mxCell id="5B8qh70_miLeS8DP_mCh-3" value="barrier" style="rounded=0;whiteSpace=wrap;html=1;fillColor=#f8cecc;strokeColor=#b85450;" parent="1" vertex="1">
          <mxGeometry x="200" y="920" width="240" height="40" as="geometry" />
        </mxCell>
        <mxCell id="5B8qh70_miLeS8DP_mCh-5" value="" style="rounded=0;whiteSpace=wrap;html=1;" parent="1" vertex="1">
          <mxGeometry x="200" y="960" width="120" height="40" as="geometry" />
        </mxCell>
        <mxCell id="5B8qh70_miLeS8DP_mCh-6" value="0x441" style="rounded=0;whiteSpace=wrap;html=1;" parent="1" vertex="1">
          <mxGeometry x="320" y="960" width="120" height="40" as="geometry" />
        </mxCell>
        <mxCell id="5B8qh70_miLeS8DP_mCh-7" value="" style="rounded=0;whiteSpace=wrap;html=1;" parent="1" vertex="1">
          <mxGeometry x="200" y="1000" width="120" height="40" as="geometry" />
        </mxCell>
        <mxCell id="5B8qh70_miLeS8DP_mCh-8" value="" style="rounded=0;whiteSpace=wrap;html=1;" parent="1" vertex="1">
          <mxGeometry x="320" y="1000" width="120" height="40" as="geometry" />
        </mxCell>
        <mxCell id="5B8qh70_miLeS8DP_mCh-9" value="barrier" style="rounded=0;whiteSpace=wrap;html=1;fillColor=#f8cecc;strokeColor=#b85450;" parent="1" vertex="1">
          <mxGeometry x="200" y="1320" width="240" height="40" as="geometry" />
        </mxCell>
        <mxCell id="5B8qh70_miLeS8DP_mCh-11" value="" style="rounded=0;whiteSpace=wrap;html=1;fillColor=#dae8fc;strokeColor=#6c8ebf;" parent="1" vertex="1">
          <mxGeometry x="200" y="1040" width="120" height="40" as="geometry" />
        </mxCell>
        <mxCell id="5B8qh70_miLeS8DP_mCh-12" value="0x441/fake size" style="rounded=0;whiteSpace=wrap;html=1;fillColor=#dae8fc;strokeColor=#6c8ebf;" parent="1" vertex="1">
          <mxGeometry x="320" y="1040" width="120" height="40" as="geometry" />
        </mxCell>
        <mxCell id="5B8qh70_miLeS8DP_mCh-13" value="fd-&amp;gt;a" style="rounded=0;whiteSpace=wrap;html=1;fillColor=#dae8fc;strokeColor=#6c8ebf;" parent="1" vertex="1">
          <mxGeometry x="200" y="1080" width="120" height="40" as="geometry" />
        </mxCell>
        <mxCell id="5B8qh70_miLeS8DP_mCh-14" value="bk-&amp;gt;b" style="rounded=0;whiteSpace=wrap;html=1;fillColor=#dae8fc;strokeColor=#6c8ebf;" parent="1" vertex="1">
          <mxGeometry x="320" y="1080" width="120" height="40" as="geometry" />
        </mxCell>
        <mxCell id="5B8qh70_miLeS8DP_mCh-17" value="" style="rounded=0;whiteSpace=wrap;html=1;" parent="1" vertex="1">
          <mxGeometry x="200" y="840" width="120" height="40" as="geometry" />
        </mxCell>
        <mxCell id="5B8qh70_miLeS8DP_mCh-18" value="0x421" style="rounded=0;whiteSpace=wrap;html=1;" parent="1" vertex="1">
          <mxGeometry x="320" y="840" width="120" height="40" as="geometry" />
        </mxCell>
        <mxCell id="5B8qh70_miLeS8DP_mCh-30" value="" style="rounded=0;whiteSpace=wrap;html=1;" parent="1" vertex="1">
          <mxGeometry x="200" y="1160" width="120" height="40" as="geometry" />
        </mxCell>
        <mxCell id="5B8qh70_miLeS8DP_mCh-31" value="0x491" style="rounded=0;whiteSpace=wrap;html=1;" parent="1" vertex="1">
          <mxGeometry x="320" y="1160" width="120" height="40" as="geometry" />
        </mxCell>
        <mxCell id="5B8qh70_miLeS8DP_mCh-32" value="" style="rounded=0;whiteSpace=wrap;html=1;" parent="1" vertex="1">
          <mxGeometry x="200" y="1200" width="120" height="40" as="geometry" />
        </mxCell>
        <mxCell id="5B8qh70_miLeS8DP_mCh-33" value="" style="rounded=0;whiteSpace=wrap;html=1;" parent="1" vertex="1">
          <mxGeometry x="320" y="1200" width="120" height="40" as="geometry" />
        </mxCell>
        <mxCell id="5B8qh70_miLeS8DP_mCh-34" value="" style="rounded=0;whiteSpace=wrap;html=1;" parent="1" vertex="1">
          <mxGeometry x="200" y="1240" width="120" height="40" as="geometry" />
        </mxCell>
        <mxCell id="5B8qh70_miLeS8DP_mCh-35" value="0x431" style="rounded=0;whiteSpace=wrap;html=1;" parent="1" vertex="1">
          <mxGeometry x="320" y="1240" width="120" height="40" as="geometry" />
        </mxCell>
        <mxCell id="5B8qh70_miLeS8DP_mCh-36" value="" style="rounded=0;whiteSpace=wrap;html=1;" parent="1" vertex="1">
          <mxGeometry x="200" y="1280" width="120" height="40" as="geometry" />
        </mxCell>
        <mxCell id="5B8qh70_miLeS8DP_mCh-37" value="" style="rounded=0;whiteSpace=wrap;html=1;" parent="1" vertex="1">
          <mxGeometry x="320" y="1280" width="120" height="40" as="geometry" />
        </mxCell>
        <mxCell id="5B8qh70_miLeS8DP_mCh-38" value="" style="shape=curlyBracket;whiteSpace=wrap;html=1;rounded=1;flipH=1;labelPosition=right;verticalLabelPosition=middle;align=left;verticalAlign=middle;" parent="1" vertex="1">
          <mxGeometry x="460" y="840" width="20" height="80" as="geometry" />
        </mxCell>
        <mxCell id="5B8qh70_miLeS8DP_mCh-44" value="a" style="text;html=1;align=center;verticalAlign=middle;resizable=0;points=[];autosize=1;strokeColor=none;fillColor=none;" parent="1" vertex="1">
          <mxGeometry x="480" y="865" width="30" height="30" as="geometry" />
        </mxCell>
        <mxCell id="5B8qh70_miLeS8DP_mCh-45" value="" style="shape=curlyBracket;whiteSpace=wrap;html=1;rounded=1;flipH=1;labelPosition=right;verticalLabelPosition=middle;align=left;verticalAlign=middle;" parent="1" vertex="1">
          <mxGeometry x="460" y="1240" width="20" height="80" as="geometry" />
        </mxCell>
        <mxCell id="5B8qh70_miLeS8DP_mCh-47" value="b" style="text;html=1;align=center;verticalAlign=middle;resizable=0;points=[];autosize=1;strokeColor=none;fillColor=none;" parent="1" vertex="1">
          <mxGeometry x="480" y="1265" width="30" height="30" as="geometry" />
        </mxCell>
        <mxCell id="5B8qh70_miLeS8DP_mCh-49" value="" style="shape=curlyBracket;whiteSpace=wrap;html=1;rounded=1;flipH=1;labelPosition=right;verticalLabelPosition=middle;align=left;verticalAlign=middle;" parent="1" vertex="1">
          <mxGeometry x="460" y="960" width="20" height="80" as="geometry" />
        </mxCell>
        <mxCell id="5B8qh70_miLeS8DP_mCh-50" value="protecter" style="text;html=1;align=center;verticalAlign=middle;resizable=0;points=[];autosize=1;strokeColor=none;fillColor=none;" parent="1" vertex="1">
          <mxGeometry x="480" y="985" width="70" height="30" as="geometry" />
        </mxCell>
        <mxCell id="5B8qh70_miLeS8DP_mCh-51" value="" style="shape=curlyBracket;whiteSpace=wrap;html=1;rounded=1;flipH=1;labelPosition=right;verticalLabelPosition=middle;align=left;verticalAlign=middle;" parent="1" vertex="1">
          <mxGeometry x="460" y="1040" width="20" height="80" as="geometry" />
        </mxCell>
        <mxCell id="5B8qh70_miLeS8DP_mCh-52" value="p" style="text;html=1;align=center;verticalAlign=middle;resizable=0;points=[];autosize=1;strokeColor=none;fillColor=none;" parent="1" vertex="1">
          <mxGeometry x="490" y="1065" width="30" height="30" as="geometry" />
        </mxCell>
        <mxCell id="5B8qh70_miLeS8DP_mCh-53" value="" style="shape=curlyBracket;whiteSpace=wrap;html=1;rounded=1;flipH=1;labelPosition=right;verticalLabelPosition=middle;align=left;verticalAlign=middle;" parent="1" vertex="1">
          <mxGeometry x="460" y="1160" width="20" height="80" as="geometry" />
        </mxCell>
        <mxCell id="5B8qh70_miLeS8DP_mCh-54" value="victim" style="text;html=1;align=center;verticalAlign=middle;resizable=0;points=[];autosize=1;strokeColor=none;fillColor=none;" parent="1" vertex="1">
          <mxGeometry x="480" y="1185" width="50" height="30" as="geometry" />
        </mxCell>
        <mxCell id="bmSekCfRo8adfsku493q-1" value="...(其它chunk)" style="text;html=1;align=center;verticalAlign=middle;resizable=0;points=[];autosize=1;strokeColor=none;fillColor=none;" vertex="1" parent="1">
          <mxGeometry x="270" y="1120" width="100" height="30" as="geometry" />
        </mxCell>
      </root>
    </mxGraphModel>
  </diagram>
</mxfile>
